<?xml version="1.0" encoding="UTF-8"?><svg id="Layer_1" xmlns="http://www.w3.org/2000/svg" viewBox="0 0 221.62 58.1"><defs><style>.cls-1{fill:#280081;}</style></defs><path class="cls-1" d="m73.31,51.04h-8.81V7h10.25c4.72,0,9.81,1.57,9.81,9.31v10.19c0,7.74-5.1,9.25-9.81,9.25h-1.45v15.29Zm0-36.36v13.4h1.26c.82,0,1.2-.38,1.2-1.26v-10.82c0-.94-.38-1.32-1.2-1.32h-1.26Z"/><path class="cls-1" d="m95.14,43.36h6.61v7.68h-15.41V7h15.16v7.68h-6.35v9.63h5.16v7.68h-5.16v11.39Z"/><path class="cls-1" d="m103.57,7h8.81v36.36h5.98v7.68h-14.78V7Z"/><path class="cls-1" d="m119.61,7h8.81v44.04h-8.81V7Z"/><path class="cls-1" d="m140.56,44.06c.82,0,1.2-.38,1.2-1.32v-11.39h8.12v10.07c0,6.86-3.27,10.32-9.63,10.32s-9.75-3.46-9.75-10.32v-24.79c0-6.86,3.33-10.25,9.75-10.25s9.63,3.4,9.63,10.25v8.75h-8.12v-10.07c0-.88-.38-1.26-1.2-1.26-.88,0-1.26.38-1.26,1.26v27.43c0,.94.38,1.32,1.26,1.32Z"/><path class="cls-1" d="m151.63,16.63c0-6.86,3.46-10.25,10.07-10.25s10,3.4,10,10.25v24.79c0,6.86-3.46,10.32-10,10.32s-10.07-3.46-10.07-10.32v-24.79Zm10.07,27.43c.82,0,1.2-.38,1.2-1.32V15.31c0-.88-.38-1.26-1.2-1.26-.88,0-1.26.38-1.26,1.26v27.43c0,.94.38,1.32,1.26,1.32Z"/><path class="cls-1" d="m195.6,7v44.04h-10.57l-2.52-13.9c-.57-3.33-1.32-7.99-1.83-10.82.19,2.83.44,7.61.44,10.88v13.84h-7.36V7h11.26l1.82,9.69c.63,3.33,1.32,7.99,1.82,10.76-.13-2.83-.44-7.55-.44-10.82V7h7.36Z"/><path class="cls-1" d="m205.6,42.74c0,.94.38,1.32,1.2,1.32.88,0,1.26-.38,1.26-1.32v-3.52c0-8.3-10.57-7.99-10.57-21.58v-1.82c0-6.04,3.15-9.44,9.69-9.44s9.69,3.4,9.69,10.25v5.47h-8.18v-6.79c0-.88-.38-1.26-1.2-1.26s-1.2.38-1.2,1.26v2.58c0,8.3,10.57,7.99,10.57,21.58v2.83c0,5.98-3.21,9.44-9.75,9.44s-9.62-3.46-9.62-10.32v-6.61h8.12v7.93Z"/><path class="cls-1" d="m42.18,26.08c.75,0,1.37-.61,1.37-1.37s-.61-1.37-1.37-1.37-1.37.61-1.37,1.37.61,1.37,1.37,1.37Z"/><path class="cls-1" d="m29.95,3.86C16.05,3.86,4.75,15.16,4.75,29.05s11.3,25.19,25.19,25.19,25.19-11.3,25.19-25.19S43.84,3.86,29.95,3.86ZM7.53,29.05c0-12.36,10.06-22.41,22.41-22.41s22.41,10.06,22.41,22.41c0,3.05-.62,5.96-1.73,8.62h-8.26c-.69,0-1.32-.28-1.79-.79-.46-.51-.68-1.17-.62-1.86.11-1.21,1.22-2.17,2.53-2.19,2.02-.03,3.93-.93,5.25-2.46,1.32-1.53,1.93-3.56,1.66-5.58-.43-3.34-3.77-6.16-7.28-6.16h-25.37c-2.25,0-4.26,1.42-5.01,3.54l-.97,2.74c-.15.43-.09.9.17,1.27.26.37.68.59,1.14.59,1.54,0,2.1.75,3.11,2.31,1.14,1.76,2.71,4.16,6.86,4.16,2.74,0,4.56-.83,6.96-3.17.29-.28.76-.34.99-.11.29.27.19.7-.04.95-2.99,3.31-8.93,9.93-9.86,18.25-7.43-3.65-12.57-11.28-12.57-20.11Zm22.41,22.41c-2.5,0-4.9-.43-7.15-1.19.51-7.81,6.35-14.31,9.23-17.51,1.28-1.42,1.24-3.54-.1-4.82-1.31-1.26-3.49-1.21-4.86.12-1.87,1.82-3.05,2.38-5.02,2.38-2.65,0-3.48-1.28-4.53-2.9-.38-.59-.8-1.22-1.33-1.8h21.55c.58,0,1.04-.47,1.04-1.04s-.47-1.04-1.04-1.04H14.16l.21-.58c.36-1.01,1.32-1.69,2.39-1.69h25.37c2.15,0,4.26,1.75,4.52,3.73.16,1.26-.2,2.47-1.01,3.41-.8.93-1.97,1.48-3.2,1.5-2.71.05-5.02,2.12-5.25,4.72-.13,1.46.36,2.91,1.34,3.98.98,1.08,2.38,1.69,3.84,1.69h6.84c-3.91,6.58-11.07,11.02-19.27,11.02Z"/></svg>